/kaggle/working/opencap-processing/OpenCapData_ab7eb7cf-817d-4035-a30b-ee68773906cb/OpenSimData/Dynamics/Suhasno_4/GRF_resultant_Suhasno_4_Suhasno_4_window_5.mot
version=1
nRows=26
nColumns=19
inDegrees=yes
endheader 
time	ground_force_right_vx	ground_force_right_vy	ground_force_right_vz	ground_force_right_px	ground_force_right_py	ground_force_right_pz	ground_torque_right_x	ground_torque_right_y	ground_torque_right_z	ground_force_left_vx	ground_force_left_vy	ground_force_left_vz	ground_force_left_px	ground_force_left_py	ground_force_left_pz	ground_torque_left_x	ground_torque_left_y	ground_torque_left_z	
          5.00000000	        -59.98284796	        179.71795917	         51.05033371	          3.52386193	          0.00000000	         -0.06898327	          0.00000000	         -2.16397715	          0.00000000	         -0.00000000	          0.00000000	         -0.00000000	          0.00000000	          0.00000000	          0.00000000	          0.00000000	          0.00000000	          0.00000000	
          5.05000000	        -49.49673451	        706.19844510	         10.56929223	          3.51717549	          0.00000000	         -0.06451930	          0.00000000	         -0.28903429	          0.00000000	          0.00000000	          0.00000000	         -0.00000000	          3.34399025	          0.00000000	         -0.29563092	          0.00000000	          0.00000000	          0.00000000	
          5.10000000	         12.32335516	       1293.93804852	         54.23040573	          3.51759241	          0.00000000	         -0.04726232	          0.00000000	          4.28584591	          0.00000000	          0.01244506	          0.02559473	         -0.03884253	          3.45829581	          0.00000000	         -0.33626049	          0.00000000	          0.00002490	          0.00000000	
          5.15000000	          0.00000000	         -0.00000000	          0.00000000	          0.00000000	          0.00000000	          0.00000000	          0.00000000	         -0.00000000	          0.00000000	         12.65791381	         28.55807932	        -42.08233570	          3.45123651	          0.00000000	         -0.28679983	          0.00000000	          0.00132215	          0.00000000	
          5.20000000	         -0.05621960	          0.07539263	         -0.08438874	          3.49307006	          0.00000000	          0.01632846	          0.00000000	         -0.00000010	          0.00000000	         25.44451174	        117.65991035	       -144.04852311	          3.43113894	          0.00000000	         -0.22990916	          0.00000000	         -0.02727786	          0.00000000	
          5.25000000	         -0.36723163	          0.37659857	         -0.01831393	          3.51527512	          0.00000000	          0.03308393	          0.00000000	          0.00000104	          0.00000000	         44.99544222	       1036.43604813	         74.54964160	          3.40685270	          0.00000000	         -0.18817832	          0.00000000	         -7.73800357	          0.00000000	
          5.30000000	          0.24170579	          0.36346863	          0.26774717	          3.50899195	          0.00000000	          0.02296235	          0.00000000	          0.00000079	          0.00000000	         36.42908048	        593.04715291	         52.14286262	          3.40436559	          0.00000000	         -0.17469600	          0.00000000	          2.27432253	          0.00000000	
          5.35000000	          0.00668363	          0.00724718	          0.00352840	          3.48899187	          0.00000000	          0.00860373	          0.00000000	          0.00000003	          0.00000000	         17.69227735	        349.07245362	         23.70678090	          3.41466538	          0.00000000	         -0.17874671	          0.00000000	          2.33111397	          0.00000000	
          5.40000000	          0.00324168	          0.00422357	          0.00270838	          3.47287804	          0.00000000	         -0.00583341	          0.00000000	          0.00000002	          0.00000000	         41.53320177	        527.37387669	         50.52427453	          3.41786423	          0.00000000	         -0.17575446	          0.00000000	          1.01473168	          0.00000000	
          5.45000000	         -0.08841188	          0.11598746	          0.05596773	          3.48102333	          0.00000000	         -0.01141713	          0.00000000	         -0.00000032	          0.00000000	         58.39402594	        691.41711344	         48.52066605	          3.42331039	          0.00000000	         -0.16530188	          0.00000000	         -2.65876484	          0.00000000	
          5.50000000	         -3.70699136	          3.91627469	          1.46355793	          3.49082170	          0.00000000	         -0.01460315	          0.00000000	         -0.00001538	          0.00000000	         32.25852751	        601.81027225	         35.30545008	          3.43806820	          0.00000000	         -0.15486687	          0.00000000	         -2.87024481	          0.00000000	
          5.55000000	          2.89787834	         31.74789359	         22.66231620	          3.49850576	          0.00000000	         -0.01893665	          0.00000000	         -0.00073652	          0.00000000	          6.85843762	        430.43756361	         -7.03949770	          3.45699192	          0.00000000	         -0.15176475	          0.00000000	         -0.16190053	          0.00000000	
          5.60000000	         88.66503581	        166.28941539	         10.42826931	          3.49999764	          0.00000000	         -0.02206521	          0.00000000	         -0.00434786	          0.00000000	       -109.42381029	        245.62704796	          1.20225079	          3.46254852	          0.00000000	         -0.15243082	          0.00000000	          0.00327247	          0.00000000	
          5.65000000	        145.90043580	        632.39560460	        -19.37438465	          3.50670978	          0.00000000	         -0.01599756	          0.00000000	         -0.96290591	          0.00000000	       -138.97060738	        145.75663009	         23.23905436	          3.47293524	          0.00000000	         -0.15201849	          0.00000000	         -0.01361047	          0.00000000	
          5.70000000	         11.87572016	        597.54470155	        -15.92471459	          3.51695901	          0.00000000	         -0.00919452	          0.00000000	         -2.60077168	          0.00000000	        -15.60703712	         14.29431795	          7.16137430	          3.50295026	          0.00000000	         -0.15939092	          0.00000000	         -0.00090492	          0.00000000	
          5.75000000	        -28.81573085	        433.29758859	        -12.13152344	          3.51933215	          0.00000000	         -0.00699134	          0.00000000	         -2.23335233	          0.00000000	         -0.00004578	          0.00003441	          0.00001766	          3.51254568	          0.00000000	         -0.15729187	          0.00000000	          0.00000000	          0.00000000	
          5.80000000	         15.50890927	        666.16222252	        -25.62819711	          3.51831985	          0.00000000	         -0.00658871	          0.00000000	         -1.62166674	          0.00000000	         -0.00000034	          0.00000026	          0.00000010	          3.54194390	          0.00000000	         -0.18556452	          0.00000000	          0.00000000	          0.00000000	
          5.85000000	         24.72268216	        582.80155247	        -44.27394822	          3.51879455	          0.00000000	         -0.00548235	          0.00000000	          0.22729101	          0.00000000	         -0.00000849	          0.00000848	          0.00000528	          3.47533624	          0.00000000	         -0.18977596	          0.00000000	          0.00000000	          0.00000000	
          5.90000000	         20.66404389	        478.33764939	        -18.49883145	          3.52331959	          0.00000000	         -0.00257956	          0.00000000	          0.21113513	          0.00000000	         -0.00000005	          0.00000159	          0.00000180	          3.47408961	          0.00000000	         -0.22365181	          0.00000000	          0.00000000	          0.00000000	
          5.95000000	         11.24934716	        616.33062950	         -8.83044260	          3.53197192	          0.00000000	          0.00066667	          0.00000000	         -1.13186733	          0.00000000	          0.00000001	          0.00000002	          0.00000002	          3.46422235	          0.00000000	         -0.26184327	          0.00000000	          0.00000000	          0.00000000	
          6.00000000	         39.70732491	        627.45781057	        -26.73668597	          3.54287634	          0.00000000	          0.00375837	          0.00000000	         -1.04845824	          0.00000000	          0.00000000	          0.00000000	          0.00000000	          3.45508471	          0.00000000	         -0.30185613	          0.00000000	          0.00000000	          0.00000000	
          6.05000000	         28.31972371	        506.67843172	         -9.62023547	          3.55276572	          0.00000000	          0.00652433	          0.00000000	          0.65339329	          0.00000000	         -0.00000000	         -0.00000000	         -0.00000000	          0.00000000	          0.00000000	          0.00000000	          0.00000000	          0.00000000	          0.00000000	
          6.10000000	          5.46522024	        520.32189836	          3.61124829	          3.56344522	          0.00000000	          0.00787791	          0.00000000	         -0.69292706	          0.00000000	         -0.00000000	         -0.00000000	          0.00000000	          0.00000000	          0.00000000	          0.00000000	          0.00000000	          0.00000000	          0.00000000	
          6.15000000	          5.92926869	        594.73547629	        -14.41738433	          3.57132644	          0.00000000	          0.00704132	          0.00000000	         -1.49750816	          0.00000000	         -0.00000000	         -0.00000000	          0.00000000	          0.00000000	          0.00000000	          0.00000000	          0.00000000	          0.00000000	          0.00000000	
          6.20000000	         44.33598517	        619.13904598	          4.56903188	          3.57829781	          0.00000000	          0.00655032	          0.00000000	         -1.08283072	          0.00000000	         -0.00000000	         -0.00000000	          0.00000000	          0.00000000	          0.00000000	          0.00000000	          0.00000000	          0.00000000	          0.00000000	
          6.25000000	         28.07706477	        489.61212436	        -32.81524069	          3.58919091	          0.00000000	          0.00586949	          0.00000000	          0.14801882	          0.00000000	         -0.00000000	         -0.00000000	          0.00000000	          0.00000000	          0.00000000	          0.00000000	          0.00000000	          0.00000000	          0.00000000	
